<svg width="341" height="279" viewBox="0 0 341 279" fill="none" xmlns="http://www.w3.org/2000/svg">
<path d="M76.5816 253.643C69.5006 244.159 63.7156 233.791 59.3848 222.821C53.8527 208.849 50.7231 194.118 50.1225 179.008C50.0593 177.174 49.9961 175.277 49.9961 173.444H50.3122C50.3122 175.277 50.3438 177.142 50.4386 179.008C51.0393 194.086 54.1689 208.786 59.6693 222.727C64.0001 233.664 69.785 244.001 76.8345 253.453L76.5816 253.643Z" fill="#261134"/>
<path d="M287.875 88.756C275.578 73.7088 259.867 61.317 242.448 52.8766L242.575 52.5921C260.025 61.0324 275.767 73.4875 288.096 88.5347L287.875 88.756Z" fill="#261134"/>
<path d="M101.302 68.3032L101.112 68.0503C112.714 58.9145 125.611 51.7702 139.457 46.8704C153.809 41.8125 168.856 39.2203 184.188 39.2203C200.689 39.2203 216.811 42.1919 232.112 48.04L231.985 48.3245C216.748 42.5079 200.658 39.5365 184.188 39.5365C153.778 39.5681 125.106 49.4942 101.302 68.3032Z" fill="#261134"/>
<path d="M69.0264 106.743L68.7419 106.585C74.9379 95.8054 82.6195 85.9425 91.5656 77.2493L91.7869 77.4706C82.904 86.1322 75.2223 95.9635 69.0264 106.743Z" fill="#261134"/>
<path d="M5.86523 213.116H92.608L110.342 273.242H23.5994L5.86523 213.116Z" fill="#FEFEFE"/>
<path d="M110.564 273.4H23.5053L23.4737 273.274L5.67627 212.959H92.7351L92.7667 213.085L110.564 273.4ZM23.7266 273.084H110.122L92.4822 213.275H6.0872L23.7266 273.084Z" fill="#261134"/>
<path d="M144.325 273.305H55.7175V278.363H144.325V273.305Z" fill="#261134"/>
<path d="M144.484 278.521H55.5598V273.147H144.484V278.521ZM55.8759 278.205H144.168V273.464H55.8759V278.205Z" fill="#261134"/>
<path d="M58.1197 273.305H23.1255V278.363H58.1197V273.305Z" fill="#FEFEFE"/>
<path d="M58.2784 278.521H22.968V273.147H58.2784V278.521ZM23.2841 278.205H57.9622V273.464H23.2841V278.205Z" fill="#261134"/>
<path d="M13.2627 218.554H88.151L102.439 267.331H27.5512L13.2627 218.554Z" fill="#31B8ED"/>
<path d="M102.661 267.489H27.4254L27.3937 267.363L13.042 218.364H88.2781L88.3096 218.491L102.661 267.489ZM27.6783 267.173H102.25L88.0567 218.712H13.4846L27.6783 267.173Z" fill="#261134"/>
<path d="M38.7732 233.19H69.7527L73.23 245.834H42.2505L38.7732 233.19Z" fill="#FEFEFE"/>
<path d="M73.452 245.993H42.1563L38.5842 233.032H69.8799L73.452 245.993ZM42.3776 245.677H73.041L69.6586 233.348H38.9952L42.3776 245.677Z" fill="#261134"/>
<path d="M54.0737 243.59L48.3521 239.228L49.1107 238.216L54.137 242.073L65.1695 235.34L65.8017 236.415L54.0737 243.59Z" fill="#261134"/>
<path d="M98.7729 233.948L97.9509 247.257C99.4051 247.257 100.67 246.308 101.081 244.949L104.4 234.359L98.7729 233.948Z" fill="#FFB82E"/>
<path d="M97.9828 247.384H97.8247L98.6466 233.759L104.653 234.202L101.27 244.981C100.828 246.435 99.5001 247.384 97.9828 247.384ZM98.9311 234.107L98.1408 247.068C99.4369 247.004 100.575 246.119 100.954 244.886L104.21 234.486L98.9311 234.107Z" fill="#261134"/>
<path d="M94.7577 235.15L91.1223 247.636C93.3351 247.636 95.3899 246.403 96.4015 244.412L101.175 235.15H94.7577Z" fill="#FFB82E"/>
<path d="M91.1232 247.795H90.9019L94.6321 234.992H101.46L96.5604 244.507C95.5172 246.53 93.4309 247.795 91.1232 247.795ZM94.885 235.308L91.3445 247.479C93.4308 247.415 95.3275 246.214 96.2759 244.349L100.954 235.308H94.885Z" fill="#261134"/>
<path d="M125.801 242.389L119.794 241.314H119.763L112.302 246.656L99.4997 249.501C98.4249 245.234 107.687 242.041 107.687 242.041L109.457 238.848L104.463 234.928L86.0014 237.931C85.6537 237.995 85.3376 238.026 84.9898 238.026C82.7138 238.026 80.5958 236.793 79.4578 234.739L110.88 223.927L122.576 227.658L125.453 228.574L125.801 242.389Z" fill="#FFB82E"/>
<path d="M99.3737 249.66L99.3422 249.502C98.299 245.266 106.708 242.168 107.561 241.883L109.237 238.849L104.432 235.055L86.0336 238.027C85.6859 238.09 85.3381 238.122 84.9904 238.122C82.6195 238.122 80.4699 236.826 79.3319 234.771L79.2371 234.613L110.88 223.738H110.944L125.612 228.385L125.959 242.547L119.795 241.472L112.366 246.783H112.335L99.3737 249.66ZM104.495 234.739L109.648 238.785L107.783 242.168L107.719 242.2C107.624 242.231 98.8363 245.329 99.595 249.312L112.208 246.499L119.7 241.156L119.795 241.188L125.612 242.2L125.264 228.638L110.849 224.054L79.6796 234.771C80.786 236.636 82.7776 237.806 84.9588 237.806C85.2749 237.806 85.6226 237.774 85.9387 237.711L104.495 234.739Z" fill="#261134"/>
<path d="M318.285 160.293L311.867 165.414C311.867 165.414 308.327 169.271 305.134 170.535L300.329 181.789L297.452 188.522L285.566 182.737L289.423 173.096L290.371 170.725C290.371 170.725 286.863 165.414 291.984 159.945L293.28 158.017L294.576 152.896L292.331 146.668C291.857 145.341 292.837 143.95 294.26 143.95L299.065 151.948L297.737 141.642C297.547 140.03 298.717 138.607 300.329 138.481L303.206 152.264L304.217 140.599C304.375 138.671 305.924 137.185 307.853 137.058L307.379 152.264L309.844 146.384C310.666 144.424 312.626 143.191 314.744 143.286L308.011 161.558C308.011 161.558 314.428 156.753 318.285 160.293Z" fill="#FFB82E"/>
<path d="M297.516 188.712L285.377 182.801L290.182 170.757C289.803 170.093 287.021 165.003 291.858 159.851L293.122 157.954L294.387 152.896L292.174 146.7C291.921 146.005 292.016 145.278 292.458 144.709C292.869 144.108 293.533 143.792 294.26 143.792H294.355L298.812 151.221L297.58 141.674C297.485 140.852 297.706 140.062 298.243 139.43C298.781 138.797 299.508 138.418 300.33 138.355H300.456L303.143 151.221L304.06 140.631C304.218 138.639 305.862 137.059 307.853 136.964H308.011L307.569 151.474L309.719 146.384C310.572 144.393 312.595 143.097 314.776 143.191H314.998L308.359 161.21C309.845 160.23 315.093 157.164 318.412 160.23L318.538 160.357L311.995 165.604C311.868 165.731 308.454 169.429 305.293 170.725L297.516 188.712ZM285.757 182.643L297.358 188.27L305.008 170.409L305.072 170.377C308.201 169.113 311.71 165.32 311.742 165.288L318.032 160.262C314.302 157.101 308.17 161.621 308.106 161.684L307.664 162L314.523 143.444C312.564 143.444 310.762 144.645 310.003 146.447L307.19 153.117L307.695 137.248C305.957 137.438 304.534 138.861 304.376 140.631L303.27 153.37L300.203 138.702C299.508 138.797 298.907 139.113 298.465 139.651C297.991 140.22 297.801 140.947 297.896 141.674L299.318 152.706L294.165 144.14C293.596 144.171 293.059 144.456 292.711 144.93C292.364 145.436 292.269 146.068 292.49 146.637L294.734 152.928L293.407 158.144L292.111 160.072C287.116 165.414 290.467 170.63 290.499 170.694L290.53 170.757L289.55 173.191L285.757 182.643Z" fill="#261134"/>
<path d="M125.801 242.389L119.795 241.314L122.577 227.595L125.453 228.512L125.801 242.389Z" fill="#261134"/>
<path d="M300.298 181.789L297.422 188.491L285.567 182.738L289.392 173.096L300.298 181.789Z" fill="#261134"/>
<path d="M241.753 178.786C241.753 178.786 232.206 163.296 230.973 155.394L233.534 137.628C233.534 137.628 232.965 120.81 211.121 126.216C211.121 126.216 210.773 118.281 205.399 116.764C205.399 116.764 208.244 121.063 207.549 125.52C207.549 125.52 202.712 116.005 194.999 121.664C194.999 121.664 188.993 125.457 191.016 131.558C191.016 131.558 191.332 138.608 201.037 138.197C201.037 138.197 201.416 147.016 180.805 160.325C180.805 160.325 163.545 169.935 166.138 188.396C168.73 206.858 185.99 217.574 185.99 217.574L246.811 213.97L241.753 178.786Z" fill="#261134"/>
<path d="M207.739 188.933L208.181 156.878C208.181 156.878 203.439 154.508 204.261 149.165C204.261 149.165 205.115 144.898 209.509 147.869L210.141 140.472C210.141 140.472 225.188 145.087 233.281 136.268C233.281 136.268 243.523 165.003 228.16 165.572L232.427 189.755L207.739 188.933Z" fill="#FFB82E"/>
<path d="M232.586 189.914H232.396L207.581 189.092L208.023 157.006C207.359 156.626 203.345 154.161 204.135 149.166C204.135 149.103 204.514 147.396 205.874 146.858C206.822 146.479 208.023 146.732 209.383 147.617L209.983 140.283L210.173 140.346C210.331 140.378 225.22 144.835 233.155 136.173L233.344 135.984L233.439 136.237C233.692 136.995 239.951 154.73 234.767 162.38C233.344 164.466 231.195 165.604 228.35 165.731L232.586 189.914ZM207.897 188.775L232.206 189.566L227.939 165.383H228.128C230.942 165.288 233.091 164.182 234.451 162.158C239.224 155.141 233.913 138.766 233.186 136.553C225.568 144.582 212.006 141.168 210.268 140.662L209.635 148.154L209.414 147.996C208.023 147.048 206.854 146.763 205.968 147.111C204.767 147.617 204.42 149.166 204.42 149.198C203.629 154.35 208.181 156.721 208.245 156.753L208.339 156.784V156.879L207.897 188.775Z" fill="#261134"/>
<path d="M304.375 191.62L285.819 238.785C279.371 250.481 267.263 245.645 267.263 245.645C261.605 244.032 254.366 223.864 254.366 223.864L251.552 278.268L173.787 278.331L177.043 266.382L177.17 265.56L172.017 263.758L121.881 247.067L124.093 227.025L166.264 233.695L179.509 193.991C181.848 186.973 187.191 181.378 194.082 178.691L207.232 173.728C221.932 189.249 229.772 170.63 229.772 170.63L252.627 175.656C259.044 177.079 264.45 181.378 267.263 187.321L273.68 200.882L287.779 174.265L304.375 191.62Z" fill="#1BA096"/>
<path d="M173.598 278.49L176.917 266.351L177.012 265.687L171.986 263.948L121.723 247.226L123.968 226.899L166.169 233.569L179.351 193.991C181.722 186.91 187.065 181.284 194.019 178.597L207.265 173.602L207.328 173.665C211.785 178.344 216.021 180.367 219.941 179.64C226.2 178.502 229.551 170.662 229.583 170.599L229.646 170.472L229.772 170.504L252.628 175.53C259.045 176.953 264.577 181.347 267.39 187.29L273.681 200.567L287.748 174.044L304.503 191.621L285.915 238.88C279.466 250.577 267.295 245.866 267.169 245.835C262.079 244.381 255.82 228.385 254.461 224.687L251.679 278.49H251.521H173.598ZM122.071 247.004L172.081 263.632L177.36 265.466L177.202 266.414L173.977 278.174L251.395 278.11L254.24 223.043L254.493 223.77C254.556 223.959 261.795 243.875 267.295 245.424C267.422 245.487 279.34 250.071 285.662 238.659L304.155 191.621L287.843 174.519L273.681 201.199L267.137 187.353C264.355 181.505 258.918 177.174 252.596 175.783L229.867 170.788C229.425 171.8 226.042 178.818 220.036 179.893C216.021 180.62 211.69 178.597 207.201 173.886L194.146 178.818C187.286 181.473 182.007 187.005 179.668 194.023L166.391 233.854L124.252 227.184L122.071 247.004Z" fill="#261134"/>
<path d="M177.076 266.382L177.202 265.592L172.049 263.79L187.855 218.427L177.076 266.382Z" fill="#261134"/>
<path d="M199.267 225.319C196.612 225.319 191.901 224.876 189.372 221.905C187.476 219.692 187.128 216.468 188.298 212.358C191.301 201.894 195.537 197.026 195.6 196.995L195.821 197.216C195.79 197.279 191.585 202.084 188.614 212.484C187.444 216.499 187.792 219.629 189.594 221.747C193.103 225.888 201.037 224.971 201.132 224.971L201.164 225.287C201.164 225.224 200.405 225.319 199.267 225.319Z" fill="#261134"/>
<path d="M234.229 232.273C228.919 232.273 224.904 228.859 224.872 228.828L225.094 228.575C225.125 228.606 229.835 232.59 235.747 231.862C239.793 231.357 243.46 228.764 246.653 224.181L246.906 224.37C243.681 229.017 239.92 231.641 235.778 232.179C235.209 232.242 234.704 232.273 234.229 232.273Z" fill="#261134"/>
<path d="M339.876 227.816C339.876 221.778 334.976 216.91 328.97 216.91C322.932 216.91 318.063 221.81 318.063 227.816C318.063 229.333 318.38 230.756 318.917 232.052C319.075 232.463 319.265 232.842 319.486 233.222L328.875 252.094L338.358 233.411C338.611 232.969 338.832 232.526 339.054 232.084C339.559 230.756 339.876 229.333 339.876 227.816ZM329.064 232.431C326.662 232.431 324.734 230.471 324.734 228.1C324.734 225.73 326.694 223.77 329.064 223.77C331.435 223.77 333.395 225.73 333.395 228.1C333.395 230.471 331.467 232.431 329.064 232.431Z" fill="#F27B79"/>
<path d="M328.843 252.442L319.328 233.317C319.107 232.937 318.917 232.526 318.759 232.147C318.19 230.788 317.906 229.334 317.906 227.848C317.906 221.747 322.869 216.784 328.97 216.784C335.071 216.784 340.034 221.747 340.034 227.848C340.034 229.334 339.75 230.788 339.181 232.147C338.991 232.621 338.738 233.064 338.485 233.506L328.843 252.442ZM328.97 217.068C323.027 217.068 318.222 221.905 318.222 227.816C318.222 229.27 318.506 230.661 319.075 231.989C319.233 232.368 319.423 232.748 319.644 233.127L328.875 251.715L338.201 233.317C338.453 232.874 338.675 232.431 338.864 231.989C339.433 230.661 339.718 229.27 339.718 227.816C339.718 221.905 334.881 217.068 328.97 217.068ZM329.065 232.59C326.567 232.59 324.576 230.566 324.576 228.101C324.576 225.603 326.599 223.612 329.065 223.612C331.53 223.612 333.554 225.635 333.554 228.101C333.585 230.566 331.562 232.59 329.065 232.59ZM329.065 223.896C326.757 223.896 324.892 225.761 324.892 228.069C324.892 230.377 326.757 232.242 329.065 232.242C331.372 232.242 333.237 230.377 333.237 228.069C333.237 225.761 331.372 223.896 329.065 223.896Z" fill="black"/>
<path d="M314.238 73.4239L317.431 120.146H285.345V73.4239H314.238Z" fill="#F27B79"/>
<path d="M317.621 120.305H285.188V73.2663H314.365V73.4244L317.621 120.305ZM285.504 119.989H317.274L314.081 73.5824H285.504V119.989Z" fill="#261134"/>
<path d="M286.61 73.4239L288.949 120.146H276.178L278.676 73.4239H286.61Z" fill="#261134"/>
<path d="M289.108 120.305H275.989V120.147L278.518 73.2663H286.737V73.4244L289.108 120.305ZM276.337 119.989H288.792L286.484 73.5508H278.865L276.337 119.989Z" fill="#261134"/>
<path d="M304.629 86.7013C304.503 86.7013 304.408 86.7013 304.313 86.7013C297.959 86.3536 296.853 80.9796 296.695 79.9048C296.631 79.399 296.537 78.8932 296.473 78.419C295.809 73.6773 295.557 71.907 293.786 72.0967C292.395 72.2547 291.858 73.4876 291.858 73.5192L291.573 73.3927C291.605 73.3295 292.174 71.9386 293.755 71.7806C295.81 71.5593 296.094 73.5508 296.789 78.3874C296.853 78.8616 296.916 79.3358 297.011 79.8732C297.169 80.9164 298.212 86.0691 304.345 86.4168C305.103 86.4484 306.526 86.3852 307.632 85.4052C308.549 84.5833 309.055 83.2873 309.15 81.5486C309.276 79.3358 308.644 73.6457 306.874 72.6973C306.368 72.4128 305.925 72.3495 305.578 72.5076C304.977 72.7605 304.756 73.5508 304.724 73.5508L304.408 73.456C304.408 73.4243 304.692 72.5392 305.419 72.2231C305.894 72.0335 306.399 72.0967 307 72.4128C308.96 73.4876 309.529 79.4622 309.434 81.5486C309.339 83.3821 308.802 84.7414 307.79 85.6265C306.81 86.5116 305.483 86.7013 304.629 86.7013Z" fill="#261134"/>
<path d="M320.561 92.7704H296.41L298.243 120.146H327.547L320.561 92.7704Z" fill="#31B8ED"/>
<path d="M327.737 120.305H298.085L296.252 92.6127H320.688L320.719 92.7391L327.737 120.305ZM298.37 119.989H327.326L320.403 92.9288H296.568L298.37 119.989Z" fill="#261134"/>
<path d="M293.786 92.7071H297.263L304.028 120.146H294.513L293.786 92.7071Z" fill="#261134"/>
<path d="M304.218 120.305H294.355V120.147L293.628 92.5179H297.39L304.218 120.305ZM294.671 119.989H303.839L297.137 92.834H293.944L294.671 119.989Z" fill="#261134"/>
<path d="M312.532 102.065C312.5 102.065 312.5 102.065 312.469 102.065C310.351 102.065 308.77 100.832 307.695 98.366L305.356 92.834C305.356 92.834 304.629 91.3482 303.459 91.6011C302.416 91.8224 302.195 92.8024 302.195 92.8024L301.879 92.7391C301.879 92.6759 302.163 91.5695 303.396 91.285C304.819 90.9689 305.609 92.6127 305.641 92.7075L307.98 98.2396C309.339 101.369 311.204 101.717 312.469 101.717C316.389 101.749 316.484 98.7454 316.547 96.9751C316.547 96.8171 316.547 96.6906 316.578 96.5642C316.8 92.5495 315.535 91.9173 315.124 91.8224C313.607 91.4431 313.164 92.8024 313.133 92.8656L312.848 92.7708C312.848 92.7392 313.417 91.0953 315.219 91.5379C315.788 91.696 317.116 92.4547 316.895 96.5958C316.895 96.7222 316.894 96.8487 316.863 97.0067C316.831 98.777 316.705 102.065 312.532 102.065Z" fill="#261134"/>
<path d="M276.147 120.431L275.894 120.241L282.406 112.402V73.4243H282.722V112.528L282.691 112.56L276.147 120.431Z" fill="white"/>
<path d="M282.616 112.39L282.376 112.595L288.816 120.108L289.056 119.902L282.616 112.39Z" fill="white"/>
<path d="M294.735 120.052L294.482 119.894L298.022 114.235L295.525 92.7076L295.841 92.676L298.338 114.298L298.307 114.33L294.735 120.052Z" fill="white"/>
<path d="M298.266 114.163L298.042 114.387L303.765 120.109L303.988 119.885L298.266 114.163Z" fill="white"/>
<path d="M91.5652 97.8914H11.2712V175.34H43.4204L50.944 188.933L59.3211 175.34H91.5652V97.8914Z" fill="white"/>
<path d="M50.9127 189.25L43.2943 175.499H11.1135V97.7338H91.7236V175.499H59.4163L50.9127 189.25ZM11.4296 175.183H43.5156L50.9444 188.618L59.2266 175.183H91.4074V98.0499H11.4296V175.183Z" fill="#261134"/>
<path d="M36.3079 106.648H66.2442V158.776H57.9936L51.2602 120.083L44.5586 158.776H36.3079V106.648Z" fill="#F27B79"/>
<path d="M66.4025 158.934H57.8673L51.2921 121L44.7168 158.934H36.1816V106.49H66.4341V158.934H66.4025ZM58.1202 158.618H66.0863V106.806H36.4661V158.618H44.4323L51.2604 119.135L58.1202 158.618Z" fill="#261134"/>
<path d="M40.8282 169.619C42.1027 169.619 43.1359 168.585 43.1359 167.311C43.1359 166.036 42.1027 165.003 40.8282 165.003C39.5537 165.003 38.5205 166.036 38.5205 167.311C38.5205 168.585 39.5537 169.619 40.8282 169.619Z" fill="white"/>
<path d="M40.8285 169.777C39.4692 169.777 38.3628 168.671 38.3628 167.311C38.3628 165.952 39.4692 164.846 40.8285 164.846C42.1878 164.846 43.2943 165.952 43.2943 167.311C43.2943 168.671 42.1878 169.777 40.8285 169.777ZM40.8285 165.13C39.6273 165.13 38.6789 166.11 38.6789 167.28C38.6789 168.449 39.6589 169.429 40.8285 169.429C42.0298 169.429 42.9781 168.449 42.9781 167.28C42.9781 166.11 42.0298 165.13 40.8285 165.13Z" fill="#261134"/>
<path d="M52.1772 169.619C53.4517 169.619 54.4849 168.586 54.4849 167.311C54.4849 166.037 53.4517 165.004 52.1772 165.004C50.9027 165.004 49.8696 166.037 49.8696 167.311C49.8696 168.586 50.9027 169.619 52.1772 169.619Z" fill="#261134"/>
<path d="M61.9763 169.619C63.2508 169.619 64.284 168.585 64.284 167.311C64.284 166.036 63.2508 165.003 61.9763 165.003C60.7018 165.003 59.6687 166.036 59.6687 167.311C59.6687 168.585 60.7018 169.619 61.9763 169.619Z" fill="white"/>
<path d="M61.9769 169.777C60.6176 169.777 59.5112 168.671 59.5112 167.311C59.5112 165.952 60.6176 164.846 61.9769 164.846C63.3362 164.846 64.4426 165.952 64.4426 167.311C64.4426 168.671 63.3678 169.777 61.9769 169.777ZM61.9769 165.13C60.7756 165.13 59.8273 166.11 59.8273 167.28C59.8273 168.449 60.8073 169.429 61.9769 169.429C63.1781 169.429 64.1265 168.449 64.1265 167.28C64.1265 166.11 63.1781 165.13 61.9769 165.13Z" fill="#261134"/>
<path d="M12.0298 109.082C18.0531 109.082 22.9359 104.199 22.9359 98.176C22.9359 92.1527 18.0531 87.2699 12.0298 87.2699C6.00659 87.2699 1.12378 92.1527 1.12378 98.176C1.12378 104.199 6.00659 109.082 12.0298 109.082Z" fill="white"/>
<path d="M12.0302 109.24C5.92911 109.24 0.966064 104.277 0.966064 98.1763C0.966064 92.0752 5.92911 87.1122 12.0302 87.1122C18.1313 87.1122 23.0943 92.0752 23.0943 98.1763C23.0943 104.277 18.1313 109.24 12.0302 109.24ZM12.0302 87.4283C6.11878 87.4283 1.28218 92.2649 1.28218 98.1763C1.28218 104.088 6.11878 108.924 12.0302 108.924C17.9416 108.924 22.7782 104.088 22.7782 98.1763C22.7782 92.2649 17.9416 87.4283 12.0302 87.4283Z" fill="#261134"/>
<path d="M15.1595 92.7072C13.6737 92.7072 12.4408 93.6872 12.0299 95.0149C11.6189 93.6872 10.3861 92.7072 8.90032 92.7072C7.09844 92.7072 5.64429 94.1614 5.64429 95.9632C5.64429 96.5639 5.80235 97.1013 6.08686 97.5754C6.21331 97.7967 6.37137 97.9864 6.52943 98.1761L11.9034 105.478L17.4671 98.2709C17.6884 98.0496 17.8781 97.8283 18.0045 97.5438C18.289 97.0697 18.4471 96.5007 18.4471 95.9316C18.4154 94.193 16.9613 92.7072 15.1595 92.7072Z" fill="#F27B79"/>
<path d="M11.8722 105.795L6.37172 98.3028C6.21366 98.1131 6.05559 97.9235 5.92914 97.7022C5.64464 97.1964 5.48657 96.5958 5.48657 95.9951C5.48657 94.0984 7.03556 92.5811 8.93226 92.5811C10.2916 92.5811 11.5244 93.3714 12.0618 94.6042C12.5992 93.3714 13.8321 92.5811 15.1914 92.5811C17.0881 92.5811 18.6371 94.13 18.6371 95.9951C18.6371 96.5958 18.479 97.1648 18.1945 97.7022C18.0365 97.9867 17.8468 98.2396 17.6255 98.4609L11.8722 105.795ZM8.90066 92.8656C7.19362 92.8656 5.77109 94.2565 5.77109 95.9635C5.77109 96.5009 5.92916 97.0383 6.18205 97.5125C6.3085 97.7022 6.43493 97.8918 6.59298 98.0815L11.8722 105.226L17.3094 98.208C17.5307 97.9867 17.6888 97.7654 17.8468 97.5125C18.1313 97.0383 18.2577 96.5009 18.2577 95.9635C18.2577 94.2565 16.8668 92.8656 15.1282 92.8656C13.7372 92.8656 12.536 93.7507 12.1567 95.0784L11.9986 95.5842L11.8406 95.0784C11.4612 93.7507 10.26 92.8656 8.90066 92.8656Z" fill="#261134"/>
<rect x="172.059" y="39.7179" width="39.5147" height="39.5147" transform="rotate(-180 172.059 39.7179)" fill="#FFB82E"/>
<path d="M150.888 18.5462C150.106 19.3273 150.106 20.5936 150.888 21.3747L163.615 34.1026C164.396 34.8836 165.663 34.8836 166.444 34.1026C167.225 33.3215 167.225 32.0552 166.444 31.2742L155.13 19.9604L166.444 8.64674C167.225 7.86569 167.225 6.59936 166.444 5.81831C165.663 5.03726 164.396 5.03726 163.615 5.81831L150.888 18.5462ZM172.059 17.9604L152.302 17.9604V21.9604L172.059 21.9604V17.9604Z" fill="white"/>
<line x1="185.574" y1="20.377" x2="175.22" y2="20.377" stroke="#FFB82E" stroke-width="4"/>
<rect x="172.039" y="39.718" width="39.5147" height="39.5147" fill="#FFB82E"/>
<path d="M193.211 60.8895C193.992 60.1084 193.992 58.8421 193.211 58.0611L180.483 45.3331C179.702 44.5521 178.435 44.5521 177.654 45.3331C176.873 46.1142 176.873 47.3805 177.654 48.1616L188.968 59.4753L177.654 70.789C176.873 71.57 176.873 72.8364 177.654 73.6174C178.435 74.3985 179.702 74.3985 180.483 73.6174L193.211 60.8895ZM172.039 61.4753L191.796 61.4753V57.4753L172.039 57.4753V61.4753Z" fill="white"/>
<line x1="158.524" y1="59.0587" x2="168.878" y2="59.0587" stroke="#FFB82E" stroke-width="4"/>
</svg>
