<svg width="291" height="313" viewBox="0 0 291 313" fill="none" xmlns="http://www.w3.org/2000/svg">
<path d="M275.628 246.594H183.338C175.32 246.594 168.761 240.035 168.761 232.018V15.3475C168.761 7.32996 175.32 0.771362 183.338 0.771362H275.628C283.646 0.771362 290.204 7.32996 290.204 15.3475V232.018C290.204 240.032 283.646 246.594 275.628 246.594Z" fill="#A7ADFF"/>
<path d="M267.922 223.66H191.044C183.026 223.66 176.468 217.101 176.468 209.084V23.6082C176.468 15.5906 183.026 9.03204 191.044 9.03204H267.922C275.939 9.03204 282.498 15.5906 282.498 23.6082V209.084C282.498 217.098 275.939 223.66 267.922 223.66Z" fill="#E3E5FC"/>
<path d="M240.922 6.38978H218.043C217.486 6.38978 217.032 5.93265 217.032 5.37827C217.032 4.82064 217.489 4.36676 218.043 4.36676H240.922C241.48 4.36676 241.934 4.82388 241.934 5.37827C241.934 5.9359 241.477 6.38978 240.922 6.38978Z" fill="#E3E5FC"/>
<path d="M229.481 240.668C232.96 240.668 235.781 237.847 235.781 234.368C235.781 230.889 232.96 228.069 229.481 228.069C226.002 228.069 223.182 230.889 223.182 234.368C223.182 237.847 226.002 240.668 229.481 240.668Z" fill="#E3E5FC"/>
<path d="M258.394 198.048H200.569C195.418 198.048 191.203 193.833 191.203 188.682V185.044C191.203 179.893 195.418 175.678 200.569 175.678H258.394C263.545 175.678 267.76 179.893 267.76 185.044V188.682C267.763 193.833 263.545 198.048 258.394 198.048Z" fill="#FFB82E"/>
<path d="M230.123 68.1437C225.263 66.9279 224.048 52.3518 219.191 52.3518C208.518 53.3212 204.816 67.4629 198.809 78.0707C199.593 82.441 203.432 85.79 208.019 85.79H250.788C255.939 85.79 260.154 81.5754 260.154 76.4238V45.7576C258.669 45.8743 257.152 46.4092 255.631 47.4953C247.131 54.7801 241.059 70.572 230.123 68.1437Z" fill="#A7ADFF"/>
<path d="M250.866 33.1396H208.097C202.945 33.1396 198.731 37.3543 198.731 42.5058V76.4206C198.731 76.9847 198.789 77.5326 198.886 78.0708C204.894 67.4629 208.596 53.3212 219.269 52.3518C224.129 52.3518 225.344 66.9279 230.201 68.1437C241.133 70.572 247.209 54.7801 255.712 47.4921C257.23 46.406 258.75 45.8743 260.235 45.7543V42.5058C260.235 37.3543 256.017 33.1396 250.866 33.1396Z" fill="white"/>
<path d="M257.22 105.557H201.746C200.258 105.557 199.039 104.338 199.039 102.849C199.039 101.361 200.258 100.142 201.746 100.142H257.22C258.708 100.142 259.927 101.361 259.927 102.849C259.927 104.338 258.708 105.557 257.22 105.557Z" fill="#A7ADFF"/>
<path d="M257.22 117.951H201.746C200.258 117.951 199.039 116.732 199.039 115.244C199.039 113.756 200.258 112.537 201.746 112.537H257.22C258.708 112.537 259.927 113.756 259.927 115.244C259.927 116.732 258.708 117.951 257.22 117.951Z" fill="white"/>
<path d="M257.22 130.342H201.746C200.258 130.342 199.039 129.123 199.039 127.635C199.039 126.147 200.258 124.928 201.746 124.928H257.22C258.708 124.928 259.927 126.147 259.927 127.635C259.927 129.126 258.708 130.342 257.22 130.342Z" fill="white"/>
<path d="M235.557 54.9325C238.534 54.9325 240.948 52.5186 240.948 49.541C240.948 46.5634 238.534 44.1495 235.557 44.1495C232.579 44.1495 230.165 46.5634 230.165 49.541C230.165 52.5186 232.579 54.9325 235.557 54.9325Z" fill="#A7ADFF"/>
<path d="M229.018 165.135C228.671 164.853 228.619 164.341 228.901 163.997L236.322 154.884C236.604 154.537 237.116 154.485 237.46 154.767C237.807 155.049 237.859 155.561 237.577 155.905L230.156 165.018C229.874 165.365 229.361 165.417 229.018 165.135Z" fill="white"/>
<path d="M229.948 165.135C230.295 164.853 230.347 164.341 230.065 163.997L222.644 154.884C222.362 154.537 221.85 154.485 221.506 154.767C221.159 155.049 221.107 155.561 221.389 155.905L228.81 165.018C229.089 165.365 229.601 165.417 229.948 165.135Z" fill="white"/>
<path d="M229.481 307.006C260.473 307.006 285.597 303.3 285.597 298.729C285.597 294.158 260.473 290.452 229.481 290.452C198.489 290.452 173.365 294.158 173.365 298.729C173.365 303.3 198.489 307.006 229.481 307.006Z" fill="#E3E5FC"/>
<path d="M72.0295 101.731H10.3923C5.11426 101.731 0.795898 97.4126 0.795898 92.1346C0.795898 86.8566 5.11426 82.5383 10.3923 82.5383H72.0327C77.3107 82.5383 81.6291 86.8566 81.6291 92.1346C81.6259 97.4126 77.3075 101.731 72.0295 101.731Z" fill="#E3E5FC"/>
<path d="M72.2758 92.7636C72.1072 92.9711 71.796 93.0035 71.5885 92.8349L66.0998 88.3642C65.8923 88.1956 65.8599 87.8844 66.0285 87.6769C66.197 87.4694 66.5083 87.437 66.7158 87.6055L72.2045 92.0763C72.412 92.2449 72.4444 92.5561 72.2758 92.7636Z" fill="white"/>
<path d="M72.2758 92.2027C72.1072 91.9953 71.796 91.9628 71.5885 92.1314L66.0998 96.6022C65.8923 96.7707 65.8599 97.082 66.0285 97.2895C66.197 97.497 66.5083 97.5294 66.7158 97.3608L72.2045 92.89C72.412 92.7182 72.4444 92.4102 72.2758 92.2027Z" fill="white"/>
<path d="M48.4308 123.086H7.21185C3.68129 123.086 0.795898 120.198 0.795898 116.67C0.795898 113.14 3.68454 110.254 7.21185 110.254H48.4308C51.9614 110.254 54.8468 113.143 54.8468 116.67C54.85 120.198 51.9614 123.086 48.4308 123.086Z" fill="#A7ADFF"/>
<path d="M48.5963 117.088C48.4829 117.228 48.2754 117.247 48.136 117.134L44.466 114.145C44.3266 114.031 44.3071 113.824 44.4206 113.684C44.5341 113.545 44.7416 113.525 44.881 113.639L48.5509 116.628C48.6871 116.742 48.7098 116.949 48.5963 117.088Z" fill="white"/>
<path d="M48.5963 116.712C48.4829 116.573 48.2754 116.553 48.136 116.667L44.466 119.656C44.3266 119.77 44.3071 119.977 44.4206 120.116C44.5341 120.256 44.7416 120.275 44.881 120.162L48.5509 117.173C48.6871 117.059 48.7098 116.852 48.5963 116.712Z" fill="white"/>
<path d="M103.694 119.786C103.694 119.786 96.3155 129.538 95.8713 136.622C95.4272 143.705 114.14 146.532 114.14 146.532L103.694 119.786Z" fill="#D4A79A"/>
<path d="M124.553 92.6533L123.762 107.379L112.237 111.823C112.237 111.823 119.168 101.682 117.992 92.6533C116.821 83.6243 124.553 92.6533 124.553 92.6533Z" fill="#D4A79A"/>
<path d="M134.853 62.5253C134.853 62.5253 137.363 65.8516 134.915 76.0477C132.467 86.2471 128.492 94.9552 125.419 94.3392C116.922 92.6404 113.939 86.6361 110.992 81.4813C107.38 75.1594 114.552 59.7404 114.552 59.7404L121.328 56.0834L134.853 62.5253Z" fill="#EAC2AB"/>
<path d="M143.902 59.7761C144.644 57.3835 143.341 54.323 141.6 52.8446C140.929 52.2741 140.083 51.9109 139.237 51.9952C138.601 52.0568 137.979 52.3648 137.346 52.2611C135.453 51.9466 135.226 49.1552 133.469 48.5879C132.159 48.1664 130.901 49.353 129.566 49.6675C128.557 49.9041 127.513 49.6318 126.499 49.4211C123.642 48.8213 120.994 47.4499 118.066 47.0966C115.596 46.7983 113.018 47.0771 110.785 48.2766C108.45 49.5281 106.777 51.8299 105.886 54.4883C105.354 56.0769 105.182 57.8471 105.61 59.4746C105.26 58.1356 102.851 59.5751 102.459 60.1003C100.926 62.1687 100.666 66.6524 101.48 69.058C102.125 70.9643 103.185 72.6501 103.775 74.5824C104.476 76.8874 104.767 79.4454 106.045 81.4879C107.507 83.8318 110.412 85.0249 112.911 84.3765C112.14 82.2562 111.375 80.0873 111.232 77.8114C111.089 75.5355 108.077 65.2486 119.288 63.0278C123.746 62.146 129.115 65.8613 133.579 66.0397C135.699 66.1239 137.823 65.7122 139.81 64.9049C141.347 64.2825 142.842 61.9904 143.688 60.3143C143.775 60.1424 143.847 59.9641 143.902 59.7761Z" fill="#4B369D"/>
<path d="M111.248 70.3936C111.248 70.3936 108.116 66.8566 108.46 72.2546C108.804 77.6525 111.631 78.7678 111.631 78.7678L111.248 70.3936Z" fill="#EAC2AB"/>
<path d="M84.5338 277.212L77.745 295.036L71.5527 293.38L79.7421 275.202C79.7388 275.202 83.2499 275.62 84.5338 277.212Z" fill="#D4A79A"/>
<path d="M93.6083 311.658C93.3878 312.028 91.1962 311.879 90.8687 311.882C87.4873 311.93 82.2904 312.177 79.3823 310.222C76.5488 308.316 74.7267 305.041 72.2239 302.746C70.4635 301.131 68.2168 300.152 66.1354 299.008C63.8368 297.743 68.5118 287.259 71.2999 288.954C73.5564 290.329 72.4476 294.128 78.2022 293.636C83.1333 293.211 80.0015 300.253 85.7366 304.448C90.8071 308.157 96.0268 307.606 93.6083 311.658Z" fill="#F3AA02"/>
<path d="M97.0609 213.571C94.3052 228.565 88.5539 242.211 80.0144 254.796C75.8484 260.933 71.3906 266.85 67.0755 272.884C60.9222 281.488 81.7781 283.501 86.9134 285.054C90.2721 286.069 95.2681 286.328 95.0444 283.738C94.9795 282.976 94.3927 282.227 93.9097 281.494C89.5103 274.774 93.3553 268.004 96.3995 261.981C105.519 243.919 111.676 223.096 118.831 204.276C121.554 197.111 120.329 190.053 120.724 182.195C120.968 177.383 112.626 156.19 103.513 161.413C97.8422 164.665 100.984 177.024 101.59 181.99C102.011 185.424 102.751 189.168 102.187 192.627C101.032 199.714 98.3642 206.487 97.0609 213.571Z" fill="#4B369D"/>
<path d="M119.272 283.209L123.49 302.399L117.22 304.467L114.007 284.182C114.01 284.185 117.272 282.564 119.272 283.209Z" fill="#EAC2AB"/>
<path d="M149.17 309.963C149.17 309.963 144.479 311.564 135.485 312.232C126.492 312.9 116.455 313.234 114.633 311.898C112.807 310.562 111.634 299.218 114.633 299.218C117.632 299.218 118.795 303.556 124.083 299.685C128.612 296.369 132.23 302.623 140.115 304.289C147.996 305.959 151.19 306.626 149.17 309.963Z" fill="#FDC510"/>
<path d="M135.602 288.585C135.301 287.881 134.51 287.356 133.822 286.808C127.542 281.802 129.076 274.167 130.081 267.495C132.464 251.668 129.912 235.714 128.959 219.883C128.032 204.432 129.578 188.925 133.109 173.863C134.393 168.39 136.163 159.928 127.698 161.53C123.688 162.289 119.729 162.14 115.732 161.439C113.628 161.07 115.774 160.386 113.628 161.07C106.317 163.404 103.584 177.221 105.085 182.036C108.074 191.622 109.047 200.823 109.533 210.974C110.22 225.369 112.616 239.779 110.908 254.064C110.071 261.063 109.099 268.043 108.165 275.03C107.62 279.105 104.213 288.034 106.498 291.723C109.637 296.787 123.62 292.495 128.291 292.381C131.799 292.29 136.623 290.974 135.602 288.585Z" fill="#5A54FF"/>
<path d="M129.377 134.777C127.257 126.173 129.559 111.7 123.493 105.317C122.871 104.662 122.213 104.017 121.389 103.644C113.767 100.211 109.17 106.468 105.892 111.892C102.611 117.322 102.686 123.196 101.084 129.285C99.2623 136.207 99.6286 143.404 99.4989 150.549C99.4179 154.9 99.9496 159.222 99.7032 163.579C99.5314 166.62 99.1002 169.642 98.4064 172.605C97.946 174.576 95.3686 178.489 96.1208 180.496C96.7173 182.084 99.4471 181.485 100.789 181.53C105.98 181.702 111.066 180.162 115.683 177.88C119.901 175.795 123.597 172.563 128.46 172.161C130.875 171.96 138.481 172.952 137.388 168.559C134.798 158.155 131.845 149.285 130.771 141.939C130.425 139.562 129.964 137.163 129.377 134.777Z" fill="#D7384E"/>
<path d="M139.972 141.977C139.972 141.977 148.872 151.823 150.321 150.426C151.77 149.029 178.384 120.593 179.716 117.497C181.049 114.401 184.236 105.446 183.902 103.641C183.568 101.835 182.722 102.029 186.249 101.391C189.776 100.752 196.481 100.6 195.936 101.968C195.391 103.336 192.603 103.453 192.603 103.453C192.603 103.453 196.215 104.338 194.85 105.07C193.485 105.803 188.943 106.416 189.384 107.729C189.825 109.042 190.483 112.05 190.243 114.595C190.003 117.14 189.021 118.291 186.071 120.107C183.12 121.919 182.602 120.658 180.883 124.247C179.165 127.836 153.057 159.017 151.391 160.308C149.724 161.598 149.29 163.021 145.588 159.611C141.885 156.2 135.366 147.758 130.149 142.298C125.364 137.293 123.396 130.245 123.396 130.245L131.138 129.103C131.138 129.103 132.046 134.472 139.972 141.977Z" fill="#EAC2AB"/>
<path d="M134.25 129.317C134.25 129.317 128.11 109.434 120.183 113.23C112.256 117.027 123.399 138.262 123.399 138.262L136.283 131.859L134.25 129.317Z" fill="#F44E4E"/>
</svg>
