<svg width="26" height="26" viewBox="0 0 26 26" fill="none" xmlns="http://www.w3.org/2000/svg">
<path d="M0.696533 25.7594V11.6268L13.2237 19.0364L0.696533 25.7594Z" fill="#FCD751"/>
<path d="M25.6966 25.7594V11.6268L13.1694 19.0364L25.6966 25.7594Z" fill="#FCD751"/>
<path d="M0.696533 25.7594L13.1694 19.0364L25.6965 25.7594H0.696533Z" fill="#FFA229"/>
<path d="M13.1694 0.759399L0.696533 11.6268L13.1694 19.0364L25.6965 11.6268L13.1694 0.759399Z" fill="#FECA5C"/>
<path d="M13.1939 19.0216L22.9559 13.247V4.11841H3.54053V13.3113L13.1939 19.0216Z" fill="#F2F2F2"/>
<path d="M16.2358 7.98129H6.43921V8.40611H16.2358V7.98129Z" fill="#CDCCCA"/>
<path d="M19.3021 7.29962H17.5146V9.08781H19.3021V7.29962Z" fill="white"/>
<path d="M16.2358 10.6685H6.43921V11.0933H16.2358V10.6685Z" fill="#CDCCCA"/>
<path d="M19.3021 9.98682H17.5146V11.775H19.3021V9.98682Z" fill="white"/>
<path d="M16.2358 12.9902H6.43921V13.415H16.2358V12.9902Z" fill="#CDCCCA"/>
<path d="M16.2358 13.7163H6.43921V14.1412H16.2358V13.7163Z" fill="#CDCCCA"/>
<path d="M19.3021 12.6691H17.5146V14.4573H19.3021V12.6691Z" fill="white"/>
<path d="M18.3146 8.82105L17.6431 8.18877L17.811 8.01094L18.2899 8.46539L18.9565 7.66022L19.1392 7.81335L18.3146 8.82105Z" fill="#333D47"/>
<path d="M18.3292 11.4589L17.6626 10.8266L17.8255 10.6537L18.3094 11.1082L18.9711 10.298L19.1587 10.4561L18.3292 11.4589Z" fill="#333D47"/>
<path d="M19.3021 15.4057V15.3563H17.5146V16.4628L19.3021 15.4057Z" fill="white"/>
<path d="M8.15259 16.038L8.8735 16.4628H16.2357V16.038H8.15259Z" fill="#CDCCCA"/>
</svg>
