<svg width="32" height="34" viewBox="0 0 32 34" fill="none" xmlns="http://www.w3.org/2000/svg">
<path d="M3.53874 4.55264C1.92786 4.55264 0.62207 5.86514 0.62207 7.46931V27.886C0.62207 29.4901 1.92786 30.8026 3.53874 30.8026H12.2887H15.2054H23.9554C25.5669 30.8026 26.8721 29.4901 26.8721 27.886V7.46931C26.8721 5.86514 25.5669 4.55264 23.9554 4.55264H15.2054H12.2887H3.53874Z" fill="#BDC3C7"/>
<path d="M3.53874 3.0943C1.92786 3.0943 0.62207 4.40009 0.62207 6.01097V26.4276C0.62207 28.0391 1.92786 29.3443 3.53874 29.3443H12.2887H15.2054H23.9554C25.5669 29.3443 26.8721 28.0391 26.8721 26.4276V6.01097C26.8721 4.40009 25.5669 3.0943 23.9554 3.0943H15.2054H12.2887H3.53874Z" fill="#ECF0F1"/>
<path d="M3.53874 3.0943C1.92786 3.0943 0.62207 4.40009 0.62207 6.01097V10.386V11.8443H26.8721V10.386V6.01097C26.8721 4.40009 25.5669 3.0943 23.9554 3.0943H15.2054H12.2887H3.53874Z" fill="#E74C3C"/>
<path d="M7.18457 6.74014C7.18457 7.02741 7.12799 7.31186 7.01806 7.57726C6.90812 7.84266 6.74699 8.08381 6.54387 8.28694C6.34074 8.49007 6.09959 8.6512 5.83419 8.76113C5.56879 8.87106 5.28434 8.92764 4.99707 8.92764C4.7098 8.92764 4.42535 8.87106 4.15995 8.76113C3.89455 8.6512 3.6534 8.49007 3.45027 8.28694C3.24715 8.08381 3.08602 7.84266 2.97608 7.57726C2.86615 7.31186 2.80957 7.02741 2.80957 6.74014C2.80957 6.45288 2.86615 6.16842 2.97608 5.90302C3.08602 5.63762 3.24715 5.39647 3.45027 5.19335C3.6534 4.99022 3.89455 4.82909 4.15995 4.71916C4.42535 4.60922 4.7098 4.55264 4.99707 4.55264C5.28434 4.55264 5.56879 4.60922 5.83419 4.71916C6.09959 4.82909 6.34074 4.99022 6.54387 5.19335C6.74699 5.39647 6.90812 5.63762 7.01806 5.90302C7.12799 6.16842 7.18457 6.45288 7.18457 6.74014Z" fill="#C0392B"/>
<path d="M4.99715 0.177643C4.19171 0.177643 3.53882 0.830539 3.53882 1.63598V6.01098C3.53882 6.81641 4.19171 7.46931 4.99715 7.46931C5.80259 7.46931 6.45548 6.81641 6.45548 6.01098V1.63598C6.45548 0.830539 5.80259 0.177643 4.99715 0.177643Z" fill="#BDC3C7"/>
<path d="M24.6846 6.74014C24.6846 7.02741 24.628 7.31186 24.5181 7.57726C24.4081 7.84266 24.247 8.08381 24.0439 8.28694C23.8407 8.49007 23.5996 8.6512 23.3342 8.76113C23.0688 8.87106 22.7843 8.92764 22.4971 8.92764C22.2098 8.92764 21.9254 8.87106 21.66 8.76113C21.3946 8.6512 21.1534 8.49007 20.9503 8.28694C20.7471 8.08381 20.586 7.84266 20.4761 7.57726C20.3662 7.31186 20.3096 7.02741 20.3096 6.74014C20.3096 6.45288 20.3662 6.16842 20.4761 5.90302C20.586 5.63762 20.7471 5.39647 20.9503 5.19335C21.1534 4.99022 21.3946 4.82909 21.66 4.71916C21.9254 4.60922 22.2098 4.55264 22.4971 4.55264C22.7843 4.55264 23.0688 4.60922 23.3342 4.71916C23.5996 4.82909 23.8407 4.99022 24.0439 5.19335C24.247 5.39647 24.4081 5.63762 24.5181 5.90302C24.628 6.16842 24.6846 6.45288 24.6846 6.74014Z" fill="#C0392B"/>
<path d="M22.4972 0.177643C21.6922 0.177643 21.0388 0.760976 21.0388 1.63598V6.01098C21.0388 6.74014 21.6922 7.46931 22.4972 7.46931C23.3022 7.46931 23.9555 6.74014 23.9555 6.01098V1.63598C23.9555 0.760976 23.3022 0.177643 22.4972 0.177643Z" fill="#BDC3C7"/>
<path d="M3.53882 14.761V17.6777H6.45549V14.761H3.53882ZM7.91382 14.761V17.6777H10.8305V14.761H7.91382ZM12.2888 14.761V17.6777H15.2055V14.761H12.2888ZM16.6638 14.761V17.6777H19.5805V14.761H16.6638ZM21.0388 14.761V17.6777H23.9555V14.761H21.0388Z" fill="#BDC3C7"/>
<path d="M3.53882 19.136V22.0527H6.45549V19.136H3.53882ZM7.91382 19.136V22.0527H10.8305V19.136H7.91382ZM12.2888 19.136V22.0527H15.2055V19.136H12.2888ZM16.6638 19.136V22.0527H19.5805V19.136H16.6638ZM21.0388 19.136V22.0527H23.9555V19.136H21.0388Z" fill="#BDC3C7"/>
<path d="M3.53882 23.511V26.4277H6.45549V23.511H3.53882ZM7.91382 23.511V26.4277H10.8305V23.511H7.91382ZM12.2888 23.511V26.4277H15.2055V23.511H12.2888ZM16.6638 23.511V26.4277H19.5805V23.511H16.6638ZM21.0388 23.511V26.4277H23.9555V23.511H21.0388Z" fill="#BDC3C7"/>
<path d="M30.4445 25.769C30.4445 27.6833 29.684 29.5192 28.3304 30.8728C26.9768 32.2265 25.1408 32.9869 23.2265 32.9869C21.3122 32.9869 19.4763 32.2265 18.1226 30.8728C16.769 29.5192 16.0085 27.6833 16.0085 25.769C16.0085 23.8546 16.769 22.0187 18.1226 20.6651C19.4763 19.3115 21.3122 18.551 23.2265 18.551C25.1408 18.551 26.9768 19.3115 28.3304 20.6651C29.684 22.0187 30.4445 23.8546 30.4445 25.769Z" fill="#34495E"/>
<path d="M23.2262 19.136C22.8237 19.136 22.4971 19.4627 22.4971 19.8652V20.5943V24.9693V25.6985C22.4971 26.101 22.8237 26.4277 23.2262 26.4277H23.9554H26.8721H27.6012C28.0037 26.4277 28.3304 26.101 28.3304 25.6985C28.3304 25.296 28.0037 24.9693 27.6012 24.9693H26.8721H23.9554V20.5943V19.8652C23.9554 19.4627 23.6287 19.136 23.2262 19.136Z" fill="#BDC3C7"/>
<path d="M23.2262 17.6776C18.7957 17.6776 15.2053 21.1776 15.2053 25.6985C15.2053 30.0735 18.7957 33.7193 23.2262 33.7193C27.6566 33.7193 31.247 30.0735 31.247 25.6985C31.247 21.1776 27.6566 17.6776 23.2262 17.6776ZM23.2262 19.136C26.8501 19.136 29.7887 22.0526 29.7887 25.6985C29.7887 29.1985 26.8501 32.261 23.2262 32.261C19.6022 32.261 16.6637 29.1985 16.6637 25.6985C16.6637 22.0526 19.6022 19.136 23.2262 19.136Z" fill="#7F8C8D"/>
<path d="M23.9554 25.6985C23.9554 26.101 23.6287 26.4276 23.2262 26.4276C22.8237 26.4276 22.4971 26.101 22.4971 25.6985C22.4971 25.296 22.8237 24.9693 23.2262 24.9693C23.6287 24.9693 23.9554 25.296 23.9554 25.6985Z" fill="#95A5A6"/>
</svg>
