<svg width="133" height="54" viewBox="0 0 133 54" fill="none" xmlns="http://www.w3.org/2000/svg">
<path d="M72.6167 21.0686V18.6157H60.3062V18.7691V21.0686V40.8455V43.2985H62.7683H72.6167V40.8455H62.7683V21.0686H72.6167Z" fill="#3F3D56"/>
<path d="M78.6182 18.6157V43.2984H90.9287V18.6157H78.6182ZM88.4666 40.8455H81.0803V21.0687H88.4666V40.8455Z" fill="#FFB82E"/>
<path d="M44.4563 40.8455V18.769H41.9941V40.8455V43.2985H44.4563H54.3047V40.8455H44.4563Z" fill="#FFB82E"/>
<path d="M36.4546 21.0686V18.6157H24.144V18.7691V21.0686V29.654V32.1069V40.8455V43.2985H26.6062H36.4546V40.8455H26.6062V32.1069H36.4546V29.654H26.6062V21.0686H36.4546Z" fill="#3F3D56"/>
<path d="M132.785 21.0686V18.6157H120.474V18.7691V21.0686V29.654V32.1069V40.8455V43.2985H122.936H132.785V40.8455H122.936V32.1069H132.785V29.654H122.936V21.0686H132.785Z" fill="#FFB82E"/>
<path d="M15.8344 18.7691V39.0421L9.34256 32.5747L9.32779 32.5896L9.31402 32.5759L2.67748 39.1877V18.6924H0.215332V43.2219H2.67748V42.6566L9.32896 36.0299L15.8344 42.5112V43.2985H18.2965V18.7691H15.8344Z" fill="#3F3D56"/>
<path d="M112.318 18.7691V19.3342L105.667 25.9609L99.1614 19.4797V18.6924H96.6992V43.2219H99.1614V22.9486L105.653 29.4162L105.668 29.4014L105.682 29.4149L112.318 22.8031V43.2985H114.78V18.7691H112.318Z" fill="#3F3D56"/>
<path d="M48.1055 3.6585C48.9401 3.6585 49.6167 2.98442 49.6167 2.15289C49.6167 1.32136 48.9401 0.647278 48.1055 0.647278C47.2708 0.647278 46.5942 1.32136 46.5942 2.15289C46.5942 2.98442 47.2708 3.6585 48.1055 3.6585Z" fill="#FFB82E"/>
<path d="M10.8281 20.3875C11.6628 20.3875 12.3394 19.7134 12.3394 18.8819C12.3394 18.0504 11.6628 17.3763 10.8281 17.3763C9.9935 17.3763 9.31689 18.0504 9.31689 18.8819C9.31689 19.7134 9.9935 20.3875 10.8281 20.3875Z" fill="#FFB82E"/>
<path d="M40.7173 53.8455C41.5519 53.8455 42.2285 53.1714 42.2285 52.3399C42.2285 51.5084 41.5519 50.8343 40.7173 50.8343C39.8827 50.8343 39.2061 51.5084 39.2061 52.3399C39.2061 53.1714 39.8827 53.8455 40.7173 53.8455Z" fill="#FFB82E"/>
<path d="M78.6663 8.17528C79.5009 8.17528 80.1775 7.5012 80.1775 6.66967C80.1775 5.83815 79.5009 5.16406 78.6663 5.16406C77.8316 5.16406 77.155 5.83815 77.155 6.66967C77.155 7.5012 77.8316 8.17528 78.6663 8.17528Z" fill="#FFB82E"/>
<path d="M123.164 52.5072C123.998 52.5072 124.675 51.8331 124.675 51.0016C124.675 50.1701 123.998 49.496 123.164 49.496C122.329 49.496 121.653 50.1701 121.653 51.0016C121.653 51.8331 122.329 52.5072 123.164 52.5072Z" fill="#FFB82E"/>
<path d="M124.675 13.0268C125.51 13.0268 126.186 12.3527 126.186 11.5212C126.186 10.6896 125.51 10.0156 124.675 10.0156C123.84 10.0156 123.164 10.6896 123.164 11.5212C123.164 12.3527 123.84 13.0268 124.675 13.0268Z" fill="#FFB82E"/>
<path d="M105.533 40.1277C106.367 40.1277 107.044 39.4537 107.044 38.6221C107.044 37.7906 106.367 37.1165 105.533 37.1165C104.698 37.1165 104.021 37.7906 104.021 38.6221C104.021 39.4537 104.698 40.1277 105.533 40.1277Z" fill="#FFB82E"/>
</svg>
