<svg width="60" height="61" viewBox="0 0 60 61" fill="none" xmlns="http://www.w3.org/2000/svg">
<rect x="30.0076" y="30.417" width="30.0076" height="30.0076" transform="rotate(-180 30.0076 30.417)" fill="#FFB82E"/>
<path d="M13.9432 14.3525C13.3574 14.9383 13.3574 15.8881 13.9432 16.4738L23.4891 26.0198C24.0749 26.6056 25.0247 26.6056 25.6104 26.0198C26.1962 25.434 26.1962 24.4842 25.6104 23.8985L17.1252 15.4132L25.6104 6.9279C26.1962 6.34211 26.1962 5.39236 25.6104 4.80658C25.0247 4.22079 24.0749 4.22079 23.4891 4.80658L13.9432 14.3525ZM30.0077 13.9132L15.0038 13.9132V16.9132L30.0077 16.9132V13.9132Z" fill="white"/>
<line x1="40.8707" y1="15.396" x2="33.0076" y2="15.396" stroke="#FFB82E" stroke-width="3"/>
<rect x="29.9923" y="30.417" width="30.0076" height="30.0076" fill="#FFB82E"/>
<path d="M46.0568 46.4815C46.6426 45.8957 46.6426 44.9459 46.0568 44.3602L36.5109 34.8142C35.9251 34.2284 34.9753 34.2284 34.3896 34.8142C33.8038 35.4 33.8038 36.3498 34.3896 36.9355L42.8748 45.4208L34.3896 53.9061C33.8038 54.4919 33.8038 55.4416 34.3896 56.0274C34.9753 56.6132 35.9251 56.6132 36.5109 56.0274L46.0568 46.4815ZM29.9923 46.9208L44.9962 46.9208V43.9208L29.9923 43.9208V46.9208Z" fill="white"/>
<line x1="19.1292" y1="45.4254" x2="26.9923" y2="45.4254" stroke="#FFB82E" stroke-width="3"/>
</svg>
