<svg width="100" height="101" viewBox="0 0 100 101" fill="none" xmlns="http://www.w3.org/2000/svg">
<g clip-path="url(#clip0)">
<path d="M97.2247 50.4084C94.2539 47.3834 93.5914 42.7876 95.5872 39.0459C97.0122 36.3792 97.1122 33.2084 95.8539 30.4542C94.5997 27.7042 92.133 25.6959 89.183 25.0292C85.0539 24.0917 82.008 20.5834 81.6705 16.3584C81.4247 13.3459 79.7914 10.6167 77.2455 8.9834C74.708 7.3459 71.5497 6.99173 68.7039 8.02923C64.7205 9.47506 60.2622 8.16257 57.6955 4.7959C55.8622 2.3959 53.0122 0.983398 49.9872 0.983398C46.9664 0.983398 44.1164 2.3959 42.283 4.7959C39.7289 8.16673 35.2705 9.47923 31.2872 8.0334C28.4455 7.00006 25.2872 7.35423 22.7455 8.98757C20.2039 10.6209 18.5664 13.3501 18.3247 16.3626C17.983 20.5876 14.9414 24.1001 10.8122 25.0334C7.86222 25.7001 5.39555 27.7084 4.14138 30.4584C2.88722 33.2084 2.98722 36.3834 4.41222 39.0459C6.40805 42.7834 5.74555 47.3834 2.77888 50.4084C0.658051 52.5626 -0.333615 55.5834 0.0955513 58.5751C0.524718 61.5667 2.32888 64.1876 4.97055 65.6584C8.67055 67.7209 10.6039 71.9501 9.73722 76.0959C9.12472 79.0542 9.92055 82.1292 11.8997 84.4126C13.883 86.7001 16.8164 87.9292 19.8247 87.7376C24.058 87.4751 27.9622 89.9876 29.4789 93.9417C30.558 96.7667 32.8955 98.9209 35.7997 99.7709C38.6955 100.621 41.8289 100.071 44.2622 98.2834C47.6747 95.7709 52.3289 95.7709 55.7372 98.2834C58.1705 100.075 61.3039 100.625 64.1997 99.7709C67.1039 98.9209 69.4414 96.7626 70.5247 93.9417C72.0372 89.9876 75.9455 87.4709 80.1747 87.7376C83.1914 87.9292 86.1205 86.7001 88.0997 84.4126C90.0789 82.1292 90.8789 79.0542 90.2622 76.0959C89.3997 71.9501 91.3289 67.7209 95.033 65.6584C97.6705 64.1834 99.4705 61.5667 99.9039 58.5751C100.337 55.5834 99.3414 52.5626 97.2247 50.4084ZM44.7914 73.0334L26.0414 54.8501L33.7789 47.1126L44.7914 57.5542L68.3039 33.4542L76.0414 41.1917L44.7914 73.0334Z" fill="#FFB82E"/>
</g>
<defs>
<clipPath id="clip0">
<rect width="100" height="100" fill="white" transform="translate(0 0.575195)"/>
</clipPath>
</defs>
</svg>
