<svg width="176" height="185" viewBox="0 0 176 185" fill="none"
    xmlns="http://www.w3.org/2000/svg">
    <g clip-path="url(#clip0)">
        <path d="M88.0001 169.35C127.985 169.35 160.399 136.836 160.399 96.7266C160.399 56.6176 127.985 24.1028 88.0001 24.1028C48.0153 24.1028 15.6012 56.6176 15.6012 96.7266C15.6012 136.836 48.0153 169.35 88.0001 169.35Z" stroke="#3AD29F" stroke-width="2" stroke-miterlimit="10" stroke-dasharray="12 12"/>
        <path d="M88.0001 184.755C136.467 184.755 175.756 145.344 175.756 96.7266C175.756 48.1096 136.467 8.69772 88.0001 8.69772C39.5336 8.69772 0.243835 48.1096 0.243835 96.7266C0.243835 145.344 39.5336 184.755 88.0001 184.755Z" stroke="#3AD29F" stroke-width="2" stroke-miterlimit="10" stroke-dasharray="12 12"/>
        <path d="M146.733 124.771C146.735 119.826 144.896 115.057 141.577 111.4C138.259 107.742 133.699 105.459 128.79 104.996C123.882 104.533 118.978 105.924 115.037 108.896C111.097 111.869 108.405 116.21 107.487 121.069L46.645 119.414L47.3129 129.899C47.3129 129.899 38.6372 149.979 84.2339 155.329V175.625H136.946V141.881C139.923 140.132 142.392 137.633 144.109 134.632C145.826 131.631 146.731 128.231 146.733 124.771Z" />
        <path d="M49.4019 130.339C49.4019 130.339 41.0943 149.568 84.7604 154.699V174.143H135.242V122.649L48.7535 120.296L49.4019 130.339Z" fill="#FAD59E"/>
        <path d="M74.6318 50.0933C73.3155 52.1769 71.2307 53.6532 68.8328 54.1998C66.4348 54.7464 63.9187 54.3188 61.8341 53.0105L34.7296 35.0942C32.6525 33.7738 31.1807 31.6825 30.6358 29.2771C30.0909 26.8717 30.5172 24.3478 31.8214 22.2566C33.1376 20.1758 35.2207 18.7014 37.6162 18.1549C40.0118 17.6084 42.5256 18.0342 44.6095 19.3395L71.7139 37.2558C73.7927 38.5746 75.2664 40.6652 75.8132 43.0707C76.3599 45.4762 75.9352 48.001 74.6318 50.0933Z" />
        <path d="M73.1303 49.1152C71.9067 51.0519 69.9688 52.4242 67.7399 52.9323C65.511 53.4404 63.1722 53.043 61.2344 51.827L36.0313 35.1602C34.1006 33.9328 32.7326 31.9889 32.226 29.7531C31.7195 27.5173 32.1156 25.1712 33.3279 23.2274C34.5515 21.2907 36.4893 19.9184 38.7183 19.4103C40.9472 18.9022 43.286 19.2996 45.2238 20.5156L70.422 37.1726C72.3562 38.3993 73.7272 40.3446 74.2347 42.5829C74.7423 44.8212 74.3452 47.17 73.1303 49.1152Z" fill="#FAD59E"/>
        <path d="M125.66 144.443C136.13 144.443 144.617 135.929 144.617 125.426C144.617 114.924 136.13 106.41 125.66 106.41C115.19 106.41 106.702 114.924 106.702 125.426C106.702 135.929 115.19 144.443 125.66 144.443Z" fill="#FAD59E"/>
        <path d="M122.247 0H49.6237C47.9745 0 46.6376 1.3411 46.6376 2.99543V139.308C46.6376 140.962 47.9745 142.304 49.6237 142.304H122.247C123.896 142.304 125.233 140.962 125.233 139.308V2.99543C125.233 1.3411 123.896 0 122.247 0Z" />
        <path d="M120.843 1.92441H51.023C49.1866 1.92441 47.698 3.41768 47.698 5.25972V137.049C47.698 138.891 49.1866 140.384 51.023 140.384H120.843C122.679 140.384 124.168 138.891 124.168 137.049V5.25972C124.168 3.41768 122.679 1.92441 120.843 1.92441Z" fill="white"/>
        <path d="M105.144 5.39664C104.923 6.86501 104.185 8.20548 103.064 9.17558C101.943 10.1457 100.513 10.6814 99.033 10.6857H72.6232C71.1432 10.6808 69.7138 10.1448 68.5934 9.17478C67.473 8.20473 66.7355 6.86459 66.5144 5.39664H52.5221C52.1407 5.39632 51.7629 5.47141 51.4104 5.61762C51.0578 5.76383 50.7375 5.9783 50.4676 6.24876C50.1978 6.51923 49.9837 6.84038 49.8377 7.19388C49.6916 7.54737 49.6164 7.92627 49.6164 8.30893V133.995C49.6161 134.377 49.691 134.756 49.8367 135.11C49.9825 135.463 50.1963 135.785 50.4659 136.055C50.7355 136.326 51.0557 136.541 51.4081 136.687C51.7605 136.834 52.1382 136.909 52.5197 136.909H119.346C119.728 136.91 120.105 136.835 120.458 136.688C120.81 136.542 121.131 136.328 121.401 136.057C121.67 135.787 121.885 135.466 122.031 135.112C122.177 134.759 122.252 134.38 122.252 133.997V8.31137C122.252 7.92872 122.177 7.54975 122.031 7.19614C121.886 6.84252 121.672 6.52118 121.402 6.25049C121.133 5.9798 120.813 5.76507 120.46 5.61856C120.108 5.47205 119.73 5.39664 119.349 5.39664H105.144Z" fill="#FFB82E"/>
        <path d="M94.0747 7.05209H78.008C77.7388 7.05209 77.5205 7.27105 77.5205 7.54114V7.63162C77.5205 7.90171 77.7388 8.12067 78.008 8.12067H94.0747C94.344 8.12067 94.5623 7.90171 94.5623 7.63162V7.54114C94.5623 7.27105 94.344 7.05209 94.0747 7.05209Z" fill="#DBDBDB"/>
        <path d="M98.1822 8.12067C98.5349 8.12067 98.8209 7.83384 98.8209 7.48001C98.8209 7.12619 98.5349 6.83936 98.1822 6.83936C97.8295 6.83936 97.5435 7.12619 97.5435 7.48001C97.5435 7.83384 97.8295 8.12067 98.1822 8.12067Z" fill="#DBDBDB"/>
        <path d="M137.914 128.781C132.412 130.058 128.636 126.458 127.364 120.942L114.722 73.8538C114.118 71.1935 114.587 68.4015 116.028 66.0874C117.469 63.7733 119.764 62.1252 122.413 61.5028C125.065 60.8967 127.848 61.3678 130.155 62.8133C132.462 64.2587 134.105 66.5611 134.725 69.2176L145.042 117.521C146.314 123.04 143.413 127.505 137.914 128.781Z" />
        <path d="M133.307 70.3702C132.234 65.7136 127.602 62.8109 122.959 63.8868C118.317 64.9627 115.423 69.6099 116.496 74.2665L128.121 124.735C129.193 129.391 133.826 132.294 138.468 131.218C143.11 130.142 146.004 125.495 144.932 120.838L133.307 70.3702Z" fill="#FAD59E"/>
        <path d="M144.537 167.781H72.3819V184.653H144.537V167.781Z" />
        <path d="M142.587 169.737H74.3321V182.941H142.587V169.737Z" fill="#4D8AF0"/>
        <path d="M64.1109 100.607C62.8106 102.666 60.7508 104.125 58.3816 104.665C56.0124 105.205 53.5264 104.783 51.4667 103.49L33.2889 91.6918C31.2365 90.3875 29.7822 88.3213 29.2437 85.9448C28.7052 83.5682 29.1262 81.0744 30.4149 79.0083C31.7152 76.9496 33.775 75.4907 36.1442 74.9505C38.5134 74.4103 40.9994 74.8327 43.0591 76.1254L61.2369 87.9237C63.2892 89.228 64.7436 91.2942 65.2821 93.6707C65.8206 96.0473 65.3995 98.5411 64.1109 100.607Z" />
        <path d="M59.5475 125.581C58.2357 127.658 56.1573 129.13 53.7666 129.676C51.3759 130.221 48.8672 129.795 46.7888 128.49L35.5292 120.255C33.4579 118.939 31.9902 116.854 31.4466 114.456C30.9031 112.058 31.3279 109.541 32.6283 107.456C33.9402 105.379 36.0186 103.906 38.4093 103.361C40.8 102.816 43.3087 103.242 45.3871 104.546L56.6467 112.785C58.7173 114.1 60.1845 116.185 60.728 118.582C61.2716 120.98 60.8472 123.496 59.5475 125.581Z" />
        <g opacity="0.5">
            <path opacity="0.5" d="M85.9329 93.1468C98.0414 93.1468 107.857 83.3004 107.857 71.1542C107.857 59.0081 98.0414 49.1617 85.9329 49.1617C73.8244 49.1617 64.0085 59.0081 64.0085 71.1542C64.0085 83.3004 73.8244 93.1468 85.9329 93.1468Z" />
        </g>
        <path d="M85.9329 91.8532C97.3293 91.8532 106.568 82.586 106.568 71.1542C106.568 59.7225 97.3293 50.4552 85.9329 50.4552C74.5366 50.4552 65.298 59.7225 65.298 71.1542C65.298 82.586 74.5366 91.8532 85.9329 91.8532Z" fill="#40CF1C"/>
        <path d="M76.9769 68.3911L84.7141 75.5067L95.6763 59.3363L99.5473 62.5714L84.7141 81.9768L73.7518 69.687L76.9769 68.3911Z" fill="white"/>
        <path d="M58.6383 124.967C57.4147 126.904 55.4768 128.276 53.2479 128.784C51.019 129.292 48.6802 128.895 46.7424 127.679L36.2409 120.01C34.3102 118.783 32.9422 116.839 32.4356 114.603C31.9291 112.367 32.3253 110.021 33.5375 108.077C34.7611 106.141 36.699 104.768 38.9279 104.26C41.1568 103.752 43.4956 104.15 45.4334 105.366L55.9324 113.049C57.8595 114.275 59.2252 116.216 59.732 118.449C60.2388 120.681 59.8457 123.024 58.6383 124.967Z" fill="#FAD59E"/>
        <path d="M63.1114 99.9592C61.8879 101.896 59.95 103.268 57.7211 103.776C55.4921 104.284 53.1533 103.887 51.2156 102.671L34.1128 91.5696C32.1821 90.3422 30.8141 88.3983 30.3076 86.1625C29.801 83.9266 30.1972 81.5806 31.4095 79.6368C32.633 77.7001 34.5709 76.3278 36.7998 75.8197C39.0287 75.3116 41.3675 75.7089 43.3053 76.925L60.408 88.0264C62.3387 89.2538 63.7068 91.1977 64.2133 93.4335C64.7198 95.6693 64.3237 98.0154 63.1114 99.9592Z" fill="#FAD59E"/>
        <path d="M68.8107 75.7513C67.504 77.8191 65.4346 79.2843 63.0546 79.8267C60.6745 80.3692 58.1772 79.9449 56.108 78.6465L33.072 63.6009C31.0105 62.2901 29.5499 60.2143 29.0092 57.8268C28.4684 55.4394 28.8914 52.9343 30.1858 50.8587C31.4925 48.7908 33.5618 47.3257 35.9419 46.7833C38.3219 46.2408 40.8193 46.6651 42.8885 47.9635L65.9245 63.0091C67.9859 64.3199 69.4465 66.3957 69.9873 68.7831C70.528 71.1706 70.1051 73.6757 68.8107 75.7513Z" />
        <path d="M67.587 74.9688C66.3634 76.9055 64.4255 78.2778 62.1966 78.7859C59.9677 79.294 57.6289 78.8967 55.6911 77.6806L34.1153 63.5887C32.1846 62.3613 30.8165 60.4174 30.31 58.1816C29.8034 55.9457 30.1996 53.5997 31.4119 51.6558C32.6354 49.7191 34.5733 48.3469 36.8022 47.8388C39.0311 47.3306 41.3699 47.728 43.3077 48.9441L64.8811 63.036C66.8122 64.263 68.1808 66.2067 68.6878 68.4426C69.1948 70.6784 68.799 73.0247 67.587 74.9688Z" fill="#FAD59E"/>
    </g>
    <defs>
        <linearGradient id="paint0_linear" x1="96.6928" y1="175.637" x2="96.6928" y2="104.911" gradientUnits="userSpaceOnUse">
            <stop stop-color="#808080" stop-opacity="0.25"/>
            <stop offset="0.54" stop-color="#808080" stop-opacity="0.12"/>
            <stop offset="1" stop-color="#808080" stop-opacity="0.1"/>
        </linearGradient>
        <linearGradient id="paint1_linear" x1="20904.2" y1="10782" x2="20904.2" y2="5329.69" gradientUnits="userSpaceOnUse">
            <stop stop-color="#808080" stop-opacity="0.25"/>
            <stop offset="0.54" stop-color="#808080" stop-opacity="0.12"/>
            <stop offset="1" stop-color="#808080" stop-opacity="0.1"/>
        </linearGradient>
        <linearGradient id="paint2_linear" x1="46479.2" y1="93074.5" x2="46479.2" y2="10259.5" gradientUnits="userSpaceOnUse">
            <stop stop-color="#808080" stop-opacity="0.25"/>
            <stop offset="0.54" stop-color="#808080" stop-opacity="0.12"/>
            <stop offset="1" stop-color="#808080" stop-opacity="0.1"/>
        </linearGradient>
        <linearGradient id="paint3_linear" x1="23945.4" y1="40731.7" x2="23945.4" y2="21935.1" gradientUnits="userSpaceOnUse">
            <stop stop-color="#808080" stop-opacity="0.25"/>
            <stop offset="0.54" stop-color="#808080" stop-opacity="0.12"/>
            <stop offset="1" stop-color="#808080" stop-opacity="0.1"/>
        </linearGradient>
        <linearGradient id="paint4_linear" x1="49363.9" y1="14109.5" x2="49363.9" y2="12945.3" gradientUnits="userSpaceOnUse">
            <stop stop-color="#808080" stop-opacity="0.25"/>
            <stop offset="0.54" stop-color="#808080" stop-opacity="0.12"/>
            <stop offset="1" stop-color="#808080" stop-opacity="0.1"/>
        </linearGradient>
        <linearGradient id="paint5_linear" x1="15827" y1="15197.3" x2="15827" y2="11473.9" gradientUnits="userSpaceOnUse">
            <stop stop-color="#808080" stop-opacity="0.25"/>
            <stop offset="0.54" stop-color="#808080" stop-opacity="0.12"/>
            <stop offset="1" stop-color="#808080" stop-opacity="0.1"/>
        </linearGradient>
        <linearGradient id="paint6_linear" x1="12763.4" y1="16263" x2="12763.4" y2="13330" gradientUnits="userSpaceOnUse">
            <stop stop-color="#808080" stop-opacity="0.25"/>
            <stop offset="0.54" stop-color="#808080" stop-opacity="0.12"/>
            <stop offset="1" stop-color="#808080" stop-opacity="0.1"/>
        </linearGradient>
        <linearGradient id="paint7_linear" x1="15521.6" y1="16804.4" x2="15521.6" y2="8891.92" gradientUnits="userSpaceOnUse">
            <stop stop-color="#808080" stop-opacity="0.25"/>
            <stop offset="0.54" stop-color="#808080" stop-opacity="0.12"/>
            <stop offset="1" stop-color="#808080" stop-opacity="0.1"/>
        </linearGradient>
        <linearGradient id="paint8_linear" x1="18346.2" y1="13436.5" x2="18346.2" y2="8845.43" gradientUnits="userSpaceOnUse">
            <stop stop-color="#808080" stop-opacity="0.25"/>
            <stop offset="0.54" stop-color="#808080" stop-opacity="0.12"/>
            <stop offset="1" stop-color="#808080" stop-opacity="0.1"/>
        </linearGradient>
        <clipPath id="clip0">
            <rect width="176" height="185" fill="white"/>
        </clipPath>
    </defs>
</svg>
