<svg width="375" height="146" viewBox="0 0 375 146" fill="none" xmlns="http://www.w3.org/2000/svg">
<path d="M0 146V14.307C12.7037 17.5202 25.4075 20.7333 39.3229 21.6233C53.2383 22.5133 68.3654 21.0802 79.1667 16.0629C89.9679 11.0457 96.4433 2.44421 108.333 1.13774C120.223 -0.168722 137.528 5.8198 153.385 6.69811C169.243 7.57642 183.652 3.34453 193.49 2.30835C203.327 1.27217 208.592 3.4317 219.271 3.7716C229.95 4.1115 246.043 2.63177 260.417 5.23486C274.79 7.83795 287.443 14.5239 300 14.8923C312.557 15.2608 325.016 9.31182 337.5 8.16137C349.984 7.01091 362.492 10.659 375 14.307V146H0Z" fill="#FFB82E" fill-opacity="0.4"/>
<path d="M0 145.955V58.1598C13.4243 63.772 26.8485 69.3843 38.8021 69.5732C50.7556 69.7621 61.2384 64.5276 72.3958 59.623C83.5532 54.7184 95.3852 50.1437 107.031 47.6243C118.677 45.105 130.138 44.641 145.573 50.5508C161.008 56.4606 180.419 68.7442 194.271 71.0364C208.123 73.3286 216.416 65.6294 226.823 63.4275C237.23 61.2255 249.75 64.5208 261.198 59.0377C272.645 53.5547 283.02 39.2933 295.312 41.7713C307.605 44.2493 321.816 63.4666 335.417 68.9879C349.018 74.5091 362.009 66.3345 375 58.1598V145.955H0Z" fill="#FFB82E" fill-opacity="0.533333"/>
<path d="M0 145.962V102.064C15.1755 93.1657 30.3509 84.2676 41.4062 87.4313C52.4615 90.5951 59.3967 105.821 69.2708 110.843C79.145 115.866 91.9582 110.685 106.51 112.307C121.063 113.928 137.354 122.351 152.083 116.404C166.813 110.456 179.98 90.138 191.146 86.846C202.311 83.5541 211.475 97.2884 224.74 104.112C238.004 110.936 255.37 110.85 268.49 111.721C281.609 112.592 290.481 114.421 301.562 111.136C312.644 107.851 325.934 99.4531 338.542 97.0888C351.149 94.7246 363.075 98.3942 375 102.064V145.962H0Z" fill="#FFB82E"/>
</svg>
